<svg xmlns="http://www.w3.org/2000/svg" xmlns:xlink="http://www.w3.org/1999/xlink" width="600" zoomAndPan="magnify" viewBox="0 0 450 149.999998" height="200" preserveAspectRatio="xMidYMid meet" version="1.0"><defs><g/></defs><g fill="#8c52ff" fill-opacity="1"><g transform="translate(16.876496, 95.704681)"><g><path d="M 15.03125 -0.539062 C 24.300781 0.898438 35.820312 0.0898438 39.960938 -9.808594 C 41.851562 -14.398438 41.671875 -19.980469 39.601562 -24.390625 C 37.171875 -29.699219 32.398438 -31.769531 28.261719 -35.371094 C 17.191406 -44.730469 28.800781 -53.640625 38.519531 -56.699219 C 44.011719 -58.5 42.121094 -64.351562 38.429688 -66.691406 C 34.019531 -69.480469 27.71875 -68.941406 22.949219 -67.5 C 13.140625 -64.710938 5.671875 -56.699219 4.230469 -46.441406 C 2.789062 -36.089844 7.289062 -28.710938 16.378906 -24.300781 C 19.710938 -22.679688 25.648438 -19.53125 22.769531 -14.851562 C 19.351562 -9.179688 12.691406 -14.761719 8.28125 -14.761719 C 3.058594 -14.851562 -0.808594 -10.621094 2.609375 -5.671875 C 5.128906 -2.070312 10.980469 -1.261719 15.03125 -0.539062 Z M 15.03125 -0.539062 "/></g></g></g><g fill="#8c52ff" fill-opacity="1"><g transform="translate(57.46645, 95.704681)"><g><path d="M 37.800781 -2.429688 C 46.261719 -9.269531 31.949219 -28.261719 25.289062 -32.128906 C 30.238281 -35.011719 48.960938 -43.378906 43.648438 -52.109375 C 38.609375 -60.570312 16.921875 -38.339844 14.21875 -35.460938 C 15.660156 -40.589844 19.351562 -62.191406 7.199219 -58.589844 C 1.980469 -57.058594 2.160156 -50.398438 2.160156 -46.078125 C 2.25 -40.140625 2.160156 -34.109375 2.070312 -28.171875 C 1.980469 -22.679688 -1.890625 -0.269531 9 -2.519531 C 13.140625 -3.328125 14.308594 -8.730469 14.761719 -12.148438 C 15.03125 -14.488281 13.320312 -25.109375 14.398438 -25.738281 C 18 -17.910156 24.660156 8.011719 37.800781 -2.429688 Z M 37.800781 -2.429688 "/></g></g></g><g fill="#8c52ff" fill-opacity="1"><g transform="translate(100.6664, 95.704681)"><g><path d="M 1.621094 -56.789062 C 5.308594 -44.371094 21.871094 -55.351562 18.988281 -64.441406 C 20.429688 -68.941406 12.511719 -70.648438 9.71875 -69.839844 C 4.5 -68.398438 0.0898438 -62.101562 1.621094 -56.789062 Z M 13.410156 -1.261719 C 16.109375 -3.238281 16.46875 -6.570312 17.101562 -9.628906 C 19.078125 -19.710938 21.328125 -33.839844 16.828125 -43.558594 C 14.761719 -47.96875 9.539062 -51.03125 5.671875 -46.980469 C 2.878906 -44.011719 2.878906 -37.53125 2.519531 -33.839844 C 1.890625 -25.828125 -0.0898438 -12.238281 3.421875 -4.679688 C 5.308594 -0.71875 9.449219 1.53125 13.410156 -1.261719 Z M 13.410156 -1.261719 "/></g></g></g><g fill="#8c52ff" fill-opacity="1"><g transform="translate(118.756373, 95.704681)"><g><path d="M 4.230469 -1.710938 C 12.78125 7.378906 16.738281 -22.769531 17.640625 -26.460938 C 21.328125 -20.429688 36.089844 10.351562 44.28125 -7.289062 C 49.410156 -18.179688 47.96875 -36.539062 46.261719 -47.699219 C 45.449219 -53.730469 39.058594 -56.25 34.648438 -51.660156 C 30.058594 -46.800781 31.949219 -37.261719 32.308594 -31.410156 C 28.710938 -36.988281 26.730469 -43.109375 23.308594 -48.601562 C 20.609375 -53.101562 14.761719 -56.878906 9.449219 -54.269531 C 0.988281 -50.039062 2.339844 -30.960938 1.890625 -22.949219 C 1.621094 -17.371094 0.0898438 -6.210938 4.230469 -1.710938 Z M 4.230469 -1.710938 "/></g></g></g><g fill="#e3dcf2" fill-opacity="1"><g transform="translate(14.171812, 92.999997)"><g><path d="M 15.03125 -0.539062 C 24.300781 0.898438 35.820312 0.0898438 39.960938 -9.808594 C 41.851562 -14.398438 41.671875 -19.980469 39.601562 -24.390625 C 37.171875 -29.699219 32.398438 -31.769531 28.261719 -35.371094 C 17.191406 -44.730469 28.800781 -53.640625 38.519531 -56.699219 C 44.011719 -58.5 42.121094 -64.351562 38.429688 -66.691406 C 34.019531 -69.480469 27.71875 -68.941406 22.949219 -67.5 C 13.140625 -64.710938 5.671875 -56.699219 4.230469 -46.441406 C 2.789062 -36.089844 7.289062 -28.710938 16.378906 -24.300781 C 19.710938 -22.679688 25.648438 -19.53125 22.769531 -14.851562 C 19.351562 -9.179688 12.691406 -14.761719 8.28125 -14.761719 C 3.058594 -14.851562 -0.808594 -10.621094 2.609375 -5.671875 C 5.128906 -2.070312 10.980469 -1.261719 15.03125 -0.539062 Z M 15.03125 -0.539062 "/></g></g></g><g fill="#e3dcf2" fill-opacity="1"><g transform="translate(54.761767, 92.999997)"><g><path d="M 37.800781 -2.429688 C 46.261719 -9.269531 31.949219 -28.261719 25.289062 -32.128906 C 30.238281 -35.011719 48.960938 -43.378906 43.648438 -52.109375 C 38.609375 -60.570312 16.921875 -38.339844 14.21875 -35.460938 C 15.660156 -40.589844 19.351562 -62.191406 7.199219 -58.589844 C 1.980469 -57.058594 2.160156 -50.398438 2.160156 -46.078125 C 2.25 -40.140625 2.160156 -34.109375 2.070312 -28.171875 C 1.980469 -22.679688 -1.890625 -0.269531 9 -2.519531 C 13.140625 -3.328125 14.308594 -8.730469 14.761719 -12.148438 C 15.03125 -14.488281 13.320312 -25.109375 14.398438 -25.738281 C 18 -17.910156 24.660156 8.011719 37.800781 -2.429688 Z M 37.800781 -2.429688 "/></g></g></g><g fill="#e3dcf2" fill-opacity="1"><g transform="translate(97.961717, 92.999997)"><g><path d="M 1.621094 -56.789062 C 5.308594 -44.371094 21.871094 -55.351562 18.988281 -64.441406 C 20.429688 -68.941406 12.511719 -70.648438 9.71875 -69.839844 C 4.5 -68.398438 0.0898438 -62.101562 1.621094 -56.789062 Z M 13.410156 -1.261719 C 16.109375 -3.238281 16.46875 -6.570312 17.101562 -9.628906 C 19.078125 -19.710938 21.328125 -33.839844 16.828125 -43.558594 C 14.761719 -47.96875 9.539062 -51.03125 5.671875 -46.980469 C 2.878906 -44.011719 2.878906 -37.53125 2.519531 -33.839844 C 1.890625 -25.828125 -0.0898438 -12.238281 3.421875 -4.679688 C 5.308594 -0.71875 9.449219 1.53125 13.410156 -1.261719 Z M 13.410156 -1.261719 "/></g></g></g><g fill="#e3dcf2" fill-opacity="1"><g transform="translate(116.051689, 92.999997)"><g><path d="M 4.230469 -1.710938 C 12.78125 7.378906 16.738281 -22.769531 17.640625 -26.460938 C 21.328125 -20.429688 36.089844 10.351562 44.28125 -7.289062 C 49.410156 -18.179688 47.96875 -36.539062 46.261719 -47.699219 C 45.449219 -53.730469 39.058594 -56.25 34.648438 -51.660156 C 30.058594 -46.800781 31.949219 -37.261719 32.308594 -31.410156 C 28.710938 -36.988281 26.730469 -43.109375 23.308594 -48.601562 C 20.609375 -53.101562 14.761719 -56.878906 9.449219 -54.269531 C 0.988281 -50.039062 2.339844 -30.960938 1.890625 -22.949219 C 1.621094 -17.371094 0.0898438 -6.210938 4.230469 -1.710938 Z M 4.230469 -1.710938 "/></g></g></g><g fill="#8c52ff" fill-opacity="1"><g transform="translate(165.282737, 95.704681)"><g><path d="M 15.03125 -0.539062 C 24.300781 0.898438 35.820312 0.0898438 39.960938 -9.808594 C 41.851562 -14.398438 41.671875 -19.980469 39.601562 -24.390625 C 37.171875 -29.699219 32.398438 -31.769531 28.261719 -35.371094 C 17.191406 -44.730469 28.800781 -53.640625 38.519531 -56.699219 C 44.011719 -58.5 42.121094 -64.351562 38.429688 -66.691406 C 34.019531 -69.480469 27.71875 -68.941406 22.949219 -67.5 C 13.140625 -64.710938 5.671875 -56.699219 4.230469 -46.441406 C 2.789062 -36.089844 7.289062 -28.710938 16.378906 -24.300781 C 19.710938 -22.679688 25.648438 -19.53125 22.769531 -14.851562 C 19.351562 -9.179688 12.691406 -14.761719 8.28125 -14.761719 C 3.058594 -14.851562 -0.808594 -10.621094 2.609375 -5.671875 C 5.128906 -2.070312 10.980469 -1.261719 15.03125 -0.539062 Z M 15.03125 -0.539062 "/></g></g></g><g fill="#8c52ff" fill-opacity="1"><g transform="translate(205.872691, 95.704681)"><g><path d="M 20.429688 -1.171875 C 27.988281 1.171875 38.519531 0.71875 39.601562 -8.910156 C 40.859375 -19.890625 30.511719 -16.738281 23.398438 -19.800781 C 14.039062 -23.761719 18.089844 -32.761719 23.941406 -38.339844 C 30.871094 -40.589844 41.761719 -42.570312 41.398438 -52.019531 C 40.949219 -61.738281 29.96875 -59.578125 23.578125 -57.421875 C 7.46875 -52.019531 -2.96875 -34.199219 3.058594 -17.730469 C 6.03125 -9.808594 12.421875 -3.78125 20.429688 -1.171875 Z M 20.429688 -1.171875 "/></g></g></g><g fill="#8c52ff" fill-opacity="1"><g transform="translate(245.922644, 95.704681)"><g><path d="M 6.929688 -0.539062 C 10.171875 0.449219 14.21875 0.179688 16.378906 -2.519531 C 18.71875 -5.398438 18 -12.511719 20.609375 -14.671875 C 22.050781 -15.75 34.648438 -14.761719 35.101562 -14.398438 C 37.53125 -12.328125 37.980469 -6.570312 39.78125 -3.960938 C 42.300781 -0.269531 45.628906 -0.0898438 49.140625 -2.878906 C 52.648438 -5.761719 52.289062 -8.730469 50.851562 -12.691406 L 40.320312 -42.300781 C 37.800781 -49.5 36.089844 -60.570312 26.640625 -60.390625 C 18.269531 -60.121094 14.128906 -55.078125 11.699219 -47.699219 C 8.820312 -38.96875 6.121094 -30.148438 3.960938 -21.238281 C 2.339844 -14.578125 -2.339844 -3.238281 6.929688 -0.539062 Z M 24.75 -27.449219 C 25.558594 -30.148438 26.460938 -32.851562 27.269531 -35.550781 C 27.988281 -33.121094 28.800781 -30.78125 29.609375 -28.351562 C 27.988281 -28.078125 26.371094 -27.71875 24.75 -27.449219 Z M 24.75 -27.449219 "/></g></g></g><g fill="#8c52ff" fill-opacity="1"><g transform="translate(296.502585, 95.704681)"><g><path d="M 48.511719 -3.058594 C 56.070312 -10.53125 47.789062 -24.390625 43.378906 -31.050781 C 53.550781 -40.5 55.890625 -55.351562 43.199219 -63.628906 C 34.289062 -69.480469 6.75 -74.429688 4.320312 -59.398438 C 2.96875 -51.390625 3.960938 -42.390625 3.421875 -34.109375 C 2.878906 -26.550781 -0.269531 -15.929688 2.429688 -8.550781 C 4.949219 -1.800781 12.601562 -0.0898438 17.28125 -5.761719 C 19.621094 -8.640625 20.429688 -12.421875 21.238281 -15.929688 C 21.511719 -17.101562 21.421875 -20.25 22.230469 -21.148438 C 23.21875 -22.230469 28.800781 -22.679688 30.238281 -23.128906 C 31.5 -16.46875 36.539062 8.640625 48.511719 -3.058594 Z M 20.789062 -34.378906 C 20.429688 -37.980469 18.269531 -44.730469 19.351562 -48.058594 C 20.070312 -50.488281 21.78125 -50.398438 24.480469 -50.488281 C 31.140625 -50.851562 38.519531 -44.820312 30.691406 -39.328125 C 27.628906 -37.171875 24.210938 -35.730469 20.789062 -34.378906 Z M 20.789062 -34.378906 "/></g></g></g><g fill="#8c52ff" fill-opacity="1"><g transform="translate(346.992542, 95.704681)"><g><path d="M 14.941406 -0.179688 C 20.519531 -0.449219 26.101562 -0.359375 31.589844 -0.628906 C 36.179688 -0.898438 39.601562 -1.53125 41.398438 -6.03125 C 42.480469 -9 43.109375 -14.398438 40.140625 -16.648438 C 36.808594 -19.078125 31.589844 -18 27.808594 -18.179688 C 24.390625 -18.359375 15.570312 -21.148438 20.699219 -25.921875 C 23.761719 -28.800781 28.53125 -25.378906 32.128906 -26.371094 C 36.089844 -27.539062 36.988281 -32.039062 36.539062 -35.730469 C 36.269531 -38.878906 35.191406 -40.679688 32.128906 -41.851562 C 29.160156 -42.929688 22.949219 -40.949219 20.609375 -42.660156 C 17.460938 -44.910156 20.339844 -49.140625 22.589844 -49.589844 C 26.011719 -50.398438 29.699219 -48.058594 33.300781 -49.5 C 36.449219 -50.761719 38.070312 -53.730469 37.621094 -57.148438 C 36.988281 -61.921875 33.03125 -62.730469 28.890625 -63.359375 C 22.769531 -64.261719 6.570312 -67.320312 3.871094 -59.761719 C 2.699219 -56.519531 3.328125 -52.019531 3.148438 -48.691406 C 2.96875 -42.660156 2.699219 -36.628906 2.429688 -30.601562 C 2.160156 -25.46875 1.980469 -20.339844 1.710938 -15.210938 C 1.53125 -11.160156 0.359375 -5.308594 3.601562 -2.160156 C 6.570312 0.71875 11.339844 -0.0898438 14.941406 -0.179688 Z M 14.941406 -0.179688 "/></g></g></g><g fill="#8c52ff" fill-opacity="1"><g transform="translate(387.942498, 95.704681)"><g><path d="M 2.609375 -7.648438 C 5.039062 7.738281 31.140625 -3.78125 37.621094 -10.53125 C 47.789062 -21.148438 53.460938 -40.320312 45.269531 -54 C 41.21875 -60.929688 33.121094 -63.539062 25.558594 -63.988281 C 19.078125 -64.441406 8.460938 -63.988281 4.230469 -58.230469 C -0.0898438 -52.199219 1.710938 -41.851562 1.980469 -34.921875 C 2.339844 -26.011719 1.261719 -16.46875 2.609375 -7.648438 Z M 20.878906 -20.519531 C 16.289062 -21.511719 18.269531 -31.679688 18.269531 -35.011719 C 18.359375 -40.410156 16.828125 -46.53125 23.941406 -44.730469 C 29.339844 -43.46875 33.570312 -38.96875 32.308594 -33.210938 C 31.5 -29.519531 26.011719 -19.351562 20.878906 -20.519531 Z M 20.878906 -20.519531 "/></g></g></g><g fill="#f29441" fill-opacity="1"><g transform="translate(162.578054, 92.999997)"><g><path d="M 15.03125 -0.539062 C 24.300781 0.898438 35.820312 0.0898438 39.960938 -9.808594 C 41.851562 -14.398438 41.671875 -19.980469 39.601562 -24.390625 C 37.171875 -29.699219 32.398438 -31.769531 28.261719 -35.371094 C 17.191406 -44.730469 28.800781 -53.640625 38.519531 -56.699219 C 44.011719 -58.5 42.121094 -64.351562 38.429688 -66.691406 C 34.019531 -69.480469 27.71875 -68.941406 22.949219 -67.5 C 13.140625 -64.710938 5.671875 -56.699219 4.230469 -46.441406 C 2.789062 -36.089844 7.289062 -28.710938 16.378906 -24.300781 C 19.710938 -22.679688 25.648438 -19.53125 22.769531 -14.851562 C 19.351562 -9.179688 12.691406 -14.761719 8.28125 -14.761719 C 3.058594 -14.851562 -0.808594 -10.621094 2.609375 -5.671875 C 5.128906 -2.070312 10.980469 -1.261719 15.03125 -0.539062 Z M 15.03125 -0.539062 "/></g></g></g><g fill="#f29441" fill-opacity="1"><g transform="translate(203.168008, 92.999997)"><g><path d="M 20.429688 -1.171875 C 27.988281 1.171875 38.519531 0.71875 39.601562 -8.910156 C 40.859375 -19.890625 30.511719 -16.738281 23.398438 -19.800781 C 14.039062 -23.761719 18.089844 -32.761719 23.941406 -38.339844 C 30.871094 -40.589844 41.761719 -42.570312 41.398438 -52.019531 C 40.949219 -61.738281 29.96875 -59.578125 23.578125 -57.421875 C 7.46875 -52.019531 -2.96875 -34.199219 3.058594 -17.730469 C 6.03125 -9.808594 12.421875 -3.78125 20.429688 -1.171875 Z M 20.429688 -1.171875 "/></g></g></g><g fill="#f29441" fill-opacity="1"><g transform="translate(243.217961, 92.999997)"><g><path d="M 6.929688 -0.539062 C 10.171875 0.449219 14.21875 0.179688 16.378906 -2.519531 C 18.71875 -5.398438 18 -12.511719 20.609375 -14.671875 C 22.050781 -15.75 34.648438 -14.761719 35.101562 -14.398438 C 37.53125 -12.328125 37.980469 -6.570312 39.78125 -3.960938 C 42.300781 -0.269531 45.628906 -0.0898438 49.140625 -2.878906 C 52.648438 -5.761719 52.289062 -8.730469 50.851562 -12.691406 L 40.320312 -42.300781 C 37.800781 -49.5 36.089844 -60.570312 26.640625 -60.390625 C 18.269531 -60.121094 14.128906 -55.078125 11.699219 -47.699219 C 8.820312 -38.96875 6.121094 -30.148438 3.960938 -21.238281 C 2.339844 -14.578125 -2.339844 -3.238281 6.929688 -0.539062 Z M 24.75 -27.449219 C 25.558594 -30.148438 26.460938 -32.851562 27.269531 -35.550781 C 27.988281 -33.121094 28.800781 -30.78125 29.609375 -28.351562 C 27.988281 -28.078125 26.371094 -27.71875 24.75 -27.449219 Z M 24.75 -27.449219 "/></g></g></g><g fill="#f29441" fill-opacity="1"><g transform="translate(293.797902, 92.999997)"><g><path d="M 48.511719 -3.058594 C 56.070312 -10.53125 47.789062 -24.390625 43.378906 -31.050781 C 53.550781 -40.5 55.890625 -55.351562 43.199219 -63.628906 C 34.289062 -69.480469 6.75 -74.429688 4.320312 -59.398438 C 2.96875 -51.390625 3.960938 -42.390625 3.421875 -34.109375 C 2.878906 -26.550781 -0.269531 -15.929688 2.429688 -8.550781 C 4.949219 -1.800781 12.601562 -0.0898438 17.28125 -5.761719 C 19.621094 -8.640625 20.429688 -12.421875 21.238281 -15.929688 C 21.511719 -17.101562 21.421875 -20.25 22.230469 -21.148438 C 23.21875 -22.230469 28.800781 -22.679688 30.238281 -23.128906 C 31.5 -16.46875 36.539062 8.640625 48.511719 -3.058594 Z M 20.789062 -34.378906 C 20.429688 -37.980469 18.269531 -44.730469 19.351562 -48.058594 C 20.070312 -50.488281 21.78125 -50.398438 24.480469 -50.488281 C 31.140625 -50.851562 38.519531 -44.820312 30.691406 -39.328125 C 27.628906 -37.171875 24.210938 -35.730469 20.789062 -34.378906 Z M 20.789062 -34.378906 "/></g></g></g><g fill="#f29441" fill-opacity="1"><g transform="translate(344.287859, 92.999997)"><g><path d="M 14.941406 -0.179688 C 20.519531 -0.449219 26.101562 -0.359375 31.589844 -0.628906 C 36.179688 -0.898438 39.601562 -1.53125 41.398438 -6.03125 C 42.480469 -9 43.109375 -14.398438 40.140625 -16.648438 C 36.808594 -19.078125 31.589844 -18 27.808594 -18.179688 C 24.390625 -18.359375 15.570312 -21.148438 20.699219 -25.921875 C 23.761719 -28.800781 28.53125 -25.378906 32.128906 -26.371094 C 36.089844 -27.539062 36.988281 -32.039062 36.539062 -35.730469 C 36.269531 -38.878906 35.191406 -40.679688 32.128906 -41.851562 C 29.160156 -42.929688 22.949219 -40.949219 20.609375 -42.660156 C 17.460938 -44.910156 20.339844 -49.140625 22.589844 -49.589844 C 26.011719 -50.398438 29.699219 -48.058594 33.300781 -49.5 C 36.449219 -50.761719 38.070312 -53.730469 37.621094 -57.148438 C 36.988281 -61.921875 33.03125 -62.730469 28.890625 -63.359375 C 22.769531 -64.261719 6.570312 -67.320312 3.871094 -59.761719 C 2.699219 -56.519531 3.328125 -52.019531 3.148438 -48.691406 C 2.96875 -42.660156 2.699219 -36.628906 2.429688 -30.601562 C 2.160156 -25.46875 1.980469 -20.339844 1.710938 -15.210938 C 1.53125 -11.160156 0.359375 -5.308594 3.601562 -2.160156 C 6.570312 0.71875 11.339844 -0.0898438 14.941406 -0.179688 Z M 14.941406 -0.179688 "/></g></g></g><g fill="#f29441" fill-opacity="1"><g transform="translate(385.237815, 92.999997)"><g><path d="M 2.609375 -7.648438 C 5.039062 7.738281 31.140625 -3.78125 37.621094 -10.53125 C 47.789062 -21.148438 53.460938 -40.320312 45.269531 -54 C 41.21875 -60.929688 33.121094 -63.539062 25.558594 -63.988281 C 19.078125 -64.441406 8.460938 -63.988281 4.230469 -58.230469 C -0.0898438 -52.199219 1.710938 -41.851562 1.980469 -34.921875 C 2.339844 -26.011719 1.261719 -16.46875 2.609375 -7.648438 Z M 20.878906 -20.519531 C 16.289062 -21.511719 18.269531 -31.679688 18.269531 -35.011719 C 18.359375 -40.410156 16.828125 -46.53125 23.941406 -44.730469 C 29.339844 -43.46875 33.570312 -38.96875 32.308594 -33.210938 C 31.5 -29.519531 26.011719 -19.351562 20.878906 -20.519531 Z M 20.878906 -20.519531 "/></g></g></g><g fill="#d9d9d9" fill-opacity="1"><g transform="translate(152.133035, 120.150001)"><g><path d="M 4.484375 -1.53125 C 4.742188 -1.53125 4.992188 -1.566406 5.234375 -1.640625 C 5.484375 -1.722656 5.664062 -1.800781 5.78125 -1.875 L 5.953125 -1.984375 L 6.671875 -0.546875 C 6.648438 -0.523438 6.613281 -0.5 6.5625 -0.46875 C 6.519531 -0.445312 6.421875 -0.394531 6.265625 -0.3125 C 6.117188 -0.226562 5.957031 -0.15625 5.78125 -0.09375 C 5.613281 -0.0390625 5.390625 0.0078125 5.109375 0.0625 C 4.828125 0.113281 4.535156 0.140625 4.234375 0.140625 C 3.535156 0.140625 2.878906 -0.0234375 2.265625 -0.359375 C 1.648438 -0.703125 1.148438 -1.171875 0.765625 -1.765625 C 0.390625 -2.359375 0.203125 -3.003906 0.203125 -3.703125 C 0.203125 -4.222656 0.3125 -4.722656 0.53125 -5.203125 C 0.757812 -5.679688 1.054688 -6.09375 1.421875 -6.4375 C 1.796875 -6.78125 2.226562 -7.050781 2.71875 -7.25 C 3.207031 -7.457031 3.710938 -7.5625 4.234375 -7.5625 C 4.710938 -7.5625 5.15625 -7.503906 5.5625 -7.390625 C 5.96875 -7.273438 6.253906 -7.160156 6.421875 -7.046875 L 6.671875 -6.875 L 5.953125 -5.4375 C 5.910156 -5.46875 5.847656 -5.507812 5.765625 -5.5625 C 5.679688 -5.613281 5.507812 -5.679688 5.25 -5.765625 C 5 -5.847656 4.742188 -5.890625 4.484375 -5.890625 C 4.078125 -5.890625 3.710938 -5.820312 3.390625 -5.6875 C 3.066406 -5.5625 2.8125 -5.390625 2.625 -5.171875 C 2.4375 -4.953125 2.289062 -4.71875 2.1875 -4.46875 C 2.09375 -4.226562 2.046875 -3.976562 2.046875 -3.71875 C 2.046875 -3.15625 2.253906 -2.648438 2.671875 -2.203125 C 3.097656 -1.753906 3.703125 -1.53125 4.484375 -1.53125 Z M 4.484375 -1.53125 "/></g></g></g><g fill="#d9d9d9" fill-opacity="1"><g transform="translate(161.898049, 120.150001)"><g><path d="M 6.25 -7.421875 L 6.25 -2.640625 C 6.25 -1.722656 6 -1.03125 5.5 -0.5625 C 5.007812 -0.09375 4.289062 0.140625 3.34375 0.140625 C 2.394531 0.140625 1.675781 -0.09375 1.1875 -0.5625 C 0.695312 -1.03125 0.453125 -1.722656 0.453125 -2.640625 L 0.453125 -7.421875 L 2.140625 -7.421875 L 2.140625 -3.125 C 2.140625 -2.53125 2.234375 -2.113281 2.421875 -1.875 C 2.609375 -1.644531 2.914062 -1.53125 3.34375 -1.53125 C 3.769531 -1.53125 4.078125 -1.644531 4.265625 -1.875 C 4.453125 -2.113281 4.546875 -2.53125 4.546875 -3.125 L 4.546875 -7.421875 Z M 6.25 -7.421875 "/></g></g></g><g fill="#d9d9d9" fill-opacity="1"><g transform="translate(171.582074, 120.150001)"><g><path d="M 2.234375 -7.421875 L 2.234375 0 L 0.546875 0 L 0.546875 -7.421875 Z M 2.234375 -7.421875 "/></g></g></g><g fill="#d9d9d9" fill-opacity="1"><g transform="translate(177.342079, 120.150001)"><g><path d="M 0.546875 -7.421875 L 2.6875 -7.421875 C 3.71875 -7.421875 4.597656 -7.066406 5.328125 -6.359375 C 6.066406 -5.660156 6.4375 -4.78125 6.4375 -3.71875 C 6.4375 -2.644531 6.070312 -1.753906 5.34375 -1.046875 C 4.613281 -0.347656 3.726562 0 2.6875 0 L 0.546875 0 Z M 2.234375 -1.515625 L 2.5 -1.515625 C 3.113281 -1.515625 3.613281 -1.722656 4 -2.140625 C 4.394531 -2.554688 4.597656 -3.078125 4.609375 -3.703125 C 4.609375 -4.335938 4.410156 -4.863281 4.015625 -5.28125 C 3.617188 -5.695312 3.113281 -5.90625 2.5 -5.90625 L 2.234375 -5.90625 Z M 2.234375 -1.515625 "/></g></g></g><g fill="#d9d9d9" fill-opacity="1"><g transform="translate(186.972101, 120.150001)"><g><path d="M 4.3125 -7.421875 L 7.3125 0 L 5.484375 0 L 4.9375 -1.484375 L 2.109375 -1.484375 L 1.5625 0 L -0.25 0 L 2.75 -7.421875 Z M 4.359375 -2.96875 L 3.53125 -5.125 L 3.515625 -5.125 L 2.6875 -2.96875 Z M 4.359375 -2.96875 "/></g></g></g><g fill="#d9d9d9" fill-opacity="1"><g transform="translate(197.016122, 120.150001)"><g><path d="M 0.546875 -7.421875 L 2.6875 -7.421875 C 3.71875 -7.421875 4.597656 -7.066406 5.328125 -6.359375 C 6.066406 -5.660156 6.4375 -4.78125 6.4375 -3.71875 C 6.4375 -2.644531 6.070312 -1.753906 5.34375 -1.046875 C 4.613281 -0.347656 3.726562 0 2.6875 0 L 0.546875 0 Z M 2.234375 -1.515625 L 2.5 -1.515625 C 3.113281 -1.515625 3.613281 -1.722656 4 -2.140625 C 4.394531 -2.554688 4.597656 -3.078125 4.609375 -3.703125 C 4.609375 -4.335938 4.410156 -4.863281 4.015625 -5.28125 C 3.617188 -5.695312 3.113281 -5.90625 2.5 -5.90625 L 2.234375 -5.90625 Z M 2.234375 -1.515625 "/></g></g></g><g fill="#d9d9d9" fill-opacity="1"><g transform="translate(206.64614, 120.150001)"><g><path d="M 0.203125 -3.71875 C 0.203125 -4.789062 0.566406 -5.695312 1.296875 -6.4375 C 2.035156 -7.1875 2.921875 -7.5625 3.953125 -7.5625 C 4.992188 -7.5625 5.875 -7.191406 6.59375 -6.453125 C 7.320312 -5.710938 7.6875 -4.800781 7.6875 -3.71875 C 7.6875 -2.632812 7.328125 -1.71875 6.609375 -0.96875 C 5.898438 -0.226562 5.015625 0.140625 3.953125 0.140625 C 2.867188 0.140625 1.972656 -0.222656 1.265625 -0.953125 C 0.554688 -1.691406 0.203125 -2.613281 0.203125 -3.71875 Z M 2.03125 -3.71875 C 2.03125 -3.320312 2.085938 -2.960938 2.203125 -2.640625 C 2.328125 -2.328125 2.539062 -2.054688 2.84375 -1.828125 C 3.144531 -1.609375 3.515625 -1.5 3.953125 -1.5 C 4.578125 -1.5 5.050781 -1.710938 5.375 -2.140625 C 5.695312 -2.578125 5.859375 -3.101562 5.859375 -3.71875 C 5.859375 -4.320312 5.691406 -4.84375 5.359375 -5.28125 C 5.035156 -5.71875 4.566406 -5.9375 3.953125 -5.9375 C 3.335938 -5.9375 2.863281 -5.71875 2.53125 -5.28125 C 2.195312 -4.84375 2.03125 -4.320312 2.03125 -3.71875 Z M 2.03125 -3.71875 "/></g></g></g><g fill="#d9d9d9" fill-opacity="1"><g transform="translate(217.527168, 120.150001)"><g/></g></g><g fill="#d9d9d9" fill-opacity="1"><g transform="translate(222.972166, 120.150001)"><g><path d="M 0.546875 -7.421875 L 2.6875 -7.421875 C 3.71875 -7.421875 4.597656 -7.066406 5.328125 -6.359375 C 6.066406 -5.660156 6.4375 -4.78125 6.4375 -3.71875 C 6.4375 -2.644531 6.070312 -1.753906 5.34375 -1.046875 C 4.613281 -0.347656 3.726562 0 2.6875 0 L 0.546875 0 Z M 2.234375 -1.515625 L 2.5 -1.515625 C 3.113281 -1.515625 3.613281 -1.722656 4 -2.140625 C 4.394531 -2.554688 4.597656 -3.078125 4.609375 -3.703125 C 4.609375 -4.335938 4.410156 -4.863281 4.015625 -5.28125 C 3.617188 -5.695312 3.113281 -5.90625 2.5 -5.90625 L 2.234375 -5.90625 Z M 2.234375 -1.515625 "/></g></g></g><g fill="#d9d9d9" fill-opacity="1"><g transform="translate(232.602187, 120.150001)"><g><path d="M 4.78125 -7.421875 L 4.78125 -5.9375 L 2.234375 -5.9375 L 2.234375 -4.46875 L 4.6875 -4.46875 L 4.6875 -2.984375 L 2.234375 -2.984375 L 2.234375 -1.484375 L 4.78125 -1.484375 L 4.78125 0 L 0.546875 0 L 0.546875 -7.421875 Z M 4.78125 -7.421875 "/></g></g></g><g fill="#d9d9d9" fill-opacity="1"><g transform="translate(240.810204, 120.150001)"><g/></g></g><g fill="#d9d9d9" fill-opacity="1"><g transform="translate(246.255201, 120.150001)"><g><path d="M 2.234375 -7.421875 L 2.234375 -1.484375 L 4.78125 -1.484375 L 4.78125 0 L 0.546875 0 L 0.546875 -7.421875 Z M 2.234375 -7.421875 "/></g></g></g><g fill="#d9d9d9" fill-opacity="1"><g transform="translate(254.328206, 120.150001)"><g><path d="M 4.3125 -7.421875 L 7.3125 0 L 5.484375 0 L 4.9375 -1.484375 L 2.109375 -1.484375 L 1.5625 0 L -0.25 0 L 2.75 -7.421875 Z M 4.359375 -2.96875 L 3.53125 -5.125 L 3.515625 -5.125 L 2.6875 -2.96875 Z M 4.359375 -2.96875 "/></g></g></g><g fill="#d9d9d9" fill-opacity="1"><g transform="translate(264.372222, 120.150001)"><g/></g></g><g fill="#d9d9d9" fill-opacity="1"><g transform="translate(269.817214, 120.150001)"><g><path d="M 0.546875 -7.421875 L 3.25 -7.421875 C 4.007812 -7.421875 4.617188 -7.222656 5.078125 -6.828125 C 5.546875 -6.441406 5.78125 -5.875 5.78125 -5.125 C 5.78125 -4.382812 5.539062 -3.800781 5.0625 -3.375 C 4.59375 -2.957031 3.988281 -2.75 3.25 -2.75 L 2.234375 -2.75 L 2.234375 0 L 0.546875 0 Z M 2.234375 -4.109375 L 2.703125 -4.109375 C 3.085938 -4.109375 3.398438 -4.179688 3.640625 -4.328125 C 3.878906 -4.484375 4 -4.734375 4 -5.078125 C 4 -5.429688 3.878906 -5.6875 3.640625 -5.84375 C 3.398438 -6 3.085938 -6.078125 2.703125 -6.078125 L 2.234375 -6.078125 Z M 2.234375 -4.109375 "/></g></g></g><g fill="#d9d9d9" fill-opacity="1"><g transform="translate(278.799221, 120.150001)"><g><path d="M 2.234375 -7.421875 L 2.234375 0 L 0.546875 0 L 0.546875 -7.421875 Z M 2.234375 -7.421875 "/></g></g></g><g fill="#d9d9d9" fill-opacity="1"><g transform="translate(284.559221, 120.150001)"><g><path d="M 4.78125 -7.421875 L 4.78125 -5.9375 L 2.234375 -5.9375 L 2.234375 -4.46875 L 4.6875 -4.46875 L 4.6875 -2.984375 L 2.234375 -2.984375 L 2.234375 -1.484375 L 4.78125 -1.484375 L 4.78125 0 L 0.546875 0 L 0.546875 -7.421875 Z M 4.78125 -7.421875 "/></g></g></g><g fill="#d9d9d9" fill-opacity="1"><g transform="translate(292.767232, 120.150001)"><g><path d="M 2.234375 -7.421875 L 2.234375 -1.484375 L 4.78125 -1.484375 L 4.78125 0 L 0.546875 0 L 0.546875 -7.421875 Z M 2.234375 -7.421875 "/></g></g></g></svg>